<svg xmlns="http://www.w3.org/2000/svg" xmlns:xlink="http://www.w3.org/1999/xlink" viewBox="0 0 267.75 91.8"><defs><style>.cls-1{fill:#fff;}.cls-2{fill:#ea5b0c;}.cls-3{fill:#00656c;}</style><symbol id="Logo-main" data-name="Logo-main" viewBox="0 0 161.3 68"><path class="cls-1" d="M6.9,21.4V37.2h.5l5.9-15.8h7.8L12.8,38.1c3.7,1.5,5,4.8,6,9.2.8,3.6,1.4,7,2.4,10.3h-7a73.55,73.55,0,0,1-2-8.4c-.9-4.3-1.9-7-4.7-7H6.9V57.6H0V21.3H6.9Zm25,36.7c-6.3,0-10.1-5-10.1-13.5,0-9.4,5-13.7,10.2-13.7,6.2,0,10,5.2,10,13.5-.1,10.9-6.1,13.7-10.1,13.7Zm.1-5.4c2.3,0,2.9-4.4,2.9-8.2s-.6-8.2-3-8.2c-2.6,0-3.1,4.5-3.1,8.2,0,4.4.7,8.2,3.2,8.2Zm12.8-13c0-3.2-.1-5.8-.2-8.3h6.1l.4,3.1h.1A6.23,6.23,0,0,1,56.8,31c5.8,0,8.1,6.3,8.1,13.6,0,9.4-4.1,13.6-8.6,13.6a5.21,5.21,0,0,1-4.4-2.5h-.1V68H44.7V39.7Zm7.1,8.4a4.56,4.56,0,0,0,.4,2.2c.5,1.6,1.5,2,2.3,2,2.5,0,3.4-3.7,3.4-7.8,0-5-1.2-7.7-3.3-7.7A2.74,2.74,0,0,0,52.3,39a3.81,3.81,0,0,0-.3,1.9v7.2ZM74.2,31.3V37c0,4.8-.3,9.4-.5,12.1h.2c.9-2.7,2-5.7,2.9-7.8l4-10.1h6.7V57.5H81V51.7c0-5.3.3-8.3.5-11.8h-.2c-.9,2.8-1.6,4.9-2.6,7.5-.7,1.8-2.8,6.9-4.3,10.1H67.8V31.2h6.4Zm32.6-9.8-.1,9.3c6.7,1.1,10.3,6.1,10.3,13.8s-3.3,12.7-10.3,13.6l.1,9.8h-6.3l.1-9.8c-7-.9-10.3-5.8-10.3-13.6,0-7.5,3.5-12.5,10.3-13.7l-.1-9.4Zm-6.2,13.6c-3.4,1.5-4.1,5.9-4.1,9.4,0,4,.9,8.1,4.1,9.4Zm6.1,18.8c3.2-1.3,4.1-5.3,4.1-9.5,0-3.4-.8-7.8-4.1-9.3ZM126,47c0,4.1,2.4,5.6,5.5,5.6a14,14,0,0,0,5-.9l.9,5a19,19,0,0,1-7.2,1.2c-7.2,0-11.1-4.7-11.1-13,0-8.8,4.6-14.1,10.5-14.1,5.7,0,8.9,4.5,8.9,12.4a27.37,27.37,0,0,1-.2,3.7H126Zm6.2-5c0-3.3-.9-6-3-6-2.3,0-3.2,3.3-3.3,6Zm15.7-10.7V37c0,4.8-.3,9.4-.5,12.1h.2c.9-2.7,2-5.7,2.9-7.8l4-10.1h6.7V57.5h-6.4V51.7c0-5.3.3-8.3.5-11.8H155c-.9,2.8-1.6,4.9-2.6,7.5-.7,1.8-2.8,6.9-4.3,10.1h-6.6V31.2h6.4Zm.9-10.2c.1,2.1,1,3.3,2.4,3.3,1.7,0,2.5-1.3,2.5-3.3H158c-.2,4.2-2.6,6.7-7,6.7s-6.4-2.5-6.6-6.7ZM8.1.2V1.8H2.4V14.6H.5V.3H8.1ZM11,.2v6a59.17,59.17,0,0,1-.2,6.1h0a39.56,39.56,0,0,1,2.7-4.7L18.1.2h1.8V14.5H18.2V8.4a51.54,51.54,0,0,1,.2-5.8h-.1a38.7,38.7,0,0,1-2.7,4.8l-4.5,7.1h-2V.2ZM34.9,8.3c-.1-2-.2-4.4-.2-6.2h-.1c-.5,1.7-1.1,3.5-1.8,5.5l-2.5,7H28.9L26.6,7.8a57,57,0,0,1-1.7-5.6h0c0,1.8-.2,4.2-.3,6.3l-.4,6.2H22.4L23.4.4h2.4l2.4,6.9a40.76,40.76,0,0,1,1.4,4.8h.1c.4-1.5.9-3,1.5-4.8L33.8.4h2.4l.9,14.3H35.3ZM41.4.2v6h6.9V.2h1.9V14.5H48.3V7.8H41.4v6.7H39.5V.2Zm13.9,9.9-1.5,4.5H51.9L56.8.3H59l4.9,14.3h-2l-1.5-4.5ZM60,8.6,58.6,4.5c-.3-.9-.5-1.8-.7-2.6h0a25,25,0,0,1-.7,2.6L55.8,8.6Zm5.2-7.5A6.56,6.56,0,0,1,69,0c2.5,0,4.2,1.3,4.2,3.5a3.63,3.63,0,0,1-3,3.5h0a3.56,3.56,0,0,1,3.5,3.6c0,3-2.6,4.2-5.2,4.2a7.51,7.51,0,0,1-3.7-.9l.5-1.4a7.53,7.53,0,0,0,3.2.9c2.1,0,3.3-1.2,3.3-2.7,0-2.2-2.1-2.8-3.9-2.8H67V6.5h.9c1.9,0,3.4-1.2,3.4-2.6a2.3,2.3,0,0,0-2.6-2.3,5.89,5.89,0,0,0-3,.9ZM77.6.2v6a59.17,59.17,0,0,1-.2,6.1h0a39.56,39.56,0,0,1,2.7-4.7L84.7.2h1.8V14.5H84.8V8.4A51.54,51.54,0,0,1,85,2.6h-.1a38.7,38.7,0,0,1-2.7,4.8l-4.5,7.1h-2V.2ZM88.1,14.6c.2-.4.4-.8.6-1.3.6-1.6,1-3.6,2.2-4.8a2.92,2.92,0,0,1,1.2-.7V7.7a3.56,3.56,0,0,1-3.2-3.5,3.49,3.49,0,0,1,1.3-2.9A6.68,6.68,0,0,1,94.3.2a17.19,17.19,0,0,1,3.4.3V14.6H95.9V8.4H94.5a2.82,2.82,0,0,0-2.1.7c-1,1-1.4,3.1-1.9,4.5a9.29,9.29,0,0,1-.5,1ZM95.9,1.7a5.94,5.94,0,0,0-1.7-.2c-1.8,0-3.4.7-3.4,2.7C90.7,6,92.3,7,94.3,7h1.6Zm12.8,12.9V.7h2l3.6,6.9a47,47,0,0,1,2.2,4.6h0a53.37,53.37,0,0,1-.2-5.8V.7H118V14.6h-1.9l-3.7-7c-.8-1.5-1.5-3.1-2.2-4.7h-.1c.1,1.8.1,3.5.1,5.9v5.7h-1.5ZM122.6,1c2,0,3.3,1.4,3.3,3.7,0,2.7-1.7,3.7-3.4,3.7a3.31,3.31,0,0,1-3.4-3.6c.1-2.5,1.6-3.8,3.5-3.8Zm-2.8,8.3h5.6v1.1h-5.6ZM122.5,2c-1.2,0-1.8,1.4-1.8,2.7,0,1.5.8,2.6,1.8,2.6s1.8-1.1,1.8-2.7c.1-1.2-.4-2.6-1.8-2.6Zm8.7,12.6V13.4l1.5-1.4c3.5-3.4,5.1-5.2,5.1-7.2a2.46,2.46,0,0,0-2.7-2.7,4.11,4.11,0,0,0-2.9,1.2L131.6,2A6.15,6.15,0,0,1,135.5.6a3.83,3.83,0,0,1,4.2,4c0,2.6-1.9,4.6-4.8,7.4l-1.1,1H140v1.6ZM145.7,2.5h0l-2.4,1.3-.4-1.4,3-1.6h1.6V14.6h-1.8V2.5Zm15.6,5c0,4.7-1.7,7.3-4.8,7.3-2.7,0-4.5-2.5-4.6-7.1s2-7.2,4.8-7.2c3,0,4.6,2.6,4.6,7m-7.5.2c0,3.6,1.1,5.6,2.8,5.6,1.9,0,2.8-2.2,2.8-5.8,0-3.4-.9-5.6-2.8-5.6-1.6.1-2.8,2.1-2.8,5.8"/></symbol></defs><title>letterРесурс 1</title><g id="Слой_2" data-name="Слой 2"><g id="Layer_1" data-name="Layer 1"><circle class="cls-1" cx="221.85" cy="45.9" r="45.9"/><path class="cls-2" d="M263.45,38.3c.1-.1.2-.1.3-.2a39.4,39.4,0,0,1,.7,7.7,42.55,42.55,0,0,1-5.7,21.2,14.26,14.26,0,0,1-2.4-5.1,8.44,8.44,0,0,1-.2-1.9,17.82,17.82,0,0,0-.7-4.7,11.18,11.18,0,0,0-5.9-6.6,11.54,11.54,0,0,0-3.3-1,1.85,1.85,0,0,0,.2-.7c0-.1.1-.2.1-.3.1-.9.7-1.3,1.9-2.1l.9-.6h.2a3.88,3.88,0,0,0,3.4-1.6.76.76,0,0,0,.2-.4,5,5,0,0,0,.1-3,5.31,5.31,0,0,0-.8-1.7,43,43,0,0,1,6,.8c1.2.2,2.4.4,3.5.6h.2a2.92,2.92,0,0,0,.9-.2Zm-58.2,41.4a.37.37,0,0,1-.1-.3c-1.2-2.6-.9-5.7,1.1-9.7a29.07,29.07,0,0,1,3.2-4.5c.2-.2.4-.5.6-.7a20.13,20.13,0,0,1-7.6-11.5,24.33,24.33,0,0,1,.9-12.3c-.1-.1-.2-.1-.3-.2a5.5,5.5,0,0,1-.9-.7c-.1-.1-.2-.2-.2-.3l-1.1-1.5a1.38,1.38,0,0,1-.3-1.2,3.34,3.34,0,0,1,.5-1.2,4.87,4.87,0,0,1-.6-3.6c.7-3.9,4.9-4.9,7.1-5.4h.6c.3,0,.6.1.9.1v-.2a2.76,2.76,0,0,1-2.3-1.6,2,2,0,0,1-.2-1.3,3.08,3.08,0,0,1,3.2-2.3c.4,0,.9.1,1.2.1.5-.6,1-1.3,1.6-1.9a39.16,39.16,0,0,1,2.7-3.3c.4-2.8,1.2-6.1,3.8-8.3a1.5,1.5,0,0,1,1.1-.4,1.27,1.27,0,0,1,.6.1,3.53,3.53,0,0,1,2.1,1.7,1.48,1.48,0,0,1,.7-.1,2.82,2.82,0,0,1,1.5.4h0a2.09,2.09,0,0,1,.4-.6,1.75,1.75,0,0,1,1.4-.7,1.93,1.93,0,0,1,1,.3h.1a3.05,3.05,0,0,1,1.3.9h.2a1.69,1.69,0,0,1,1,.3c.1,0,.2,0,.2.1a3.49,3.49,0,0,1,2.2,1.4c0,.1.1.1.1.2a1.27,1.27,0,0,1,.6-.1h.5a2.54,2.54,0,0,1,1.3-.9c.1,0,.3-.1.4-.1a1.5,1.5,0,0,1,1.1.4h.1a4.07,4.07,0,0,1,1.1.6h.1a1.88,1.88,0,0,1,.8.2l1.2.7a1.71,1.71,0,0,1,.8.9,2.13,2.13,0,0,1,1.8-.9,2.65,2.65,0,0,1,1.4.5c.1.1.3.2.4.4a3.53,3.53,0,0,1,.7,1.6c0,.1,0,.2.1.2a.35.35,0,0,1,.2.1,5.56,5.56,0,0,1,1.5,1l1.2.6a2.2,2.2,0,0,1,.8-.1,3.61,3.61,0,0,1,1.9.7.35.35,0,0,1,.2.1,2.65,2.65,0,0,1,.6.5l.3.5a2,2,0,0,1,.3,1.1,24.82,24.82,0,0,1-2,7.9c-.1,1-.2,1.4.2,1.8a1.61,1.61,0,0,1,.4.7c.1.3.2.5.3.8a5.27,5.27,0,0,1,.5,1.5h.7a2.2,2.2,0,0,1,.8.1l.5.1a53.29,53.29,0,0,1,8.5,1.7,1.79,1.79,0,0,1,.7.5.35.35,0,0,0,.2.1l.1.1a42.53,42.53,0,1,0-61.1,48.6A9.77,9.77,0,0,1,205.25,79.7Z"/><path class="cls-3" d="M214.25,87.9a5.83,5.83,0,0,1-2.9-.6c-1.7-1.1-2.8-4-3-6.2,0-.1,0-.1-.1-.1h-.2a13.34,13.34,0,0,0-3.2,3.7l-1.2-.6a17,17,0,0,1,4.1-3.9l.1-.1V80l-.3-.3a4.62,4.62,0,0,1-.7-1c-1-2.1-.6-4.7,1.1-8.1a28.14,28.14,0,0,1,3-4.2c.6-.7,1.2-1.4,1.8-2.2v-.1a.1.1,0,0,0-.1-.1,4.35,4.35,0,0,1-.7-.4c-3.5-2-6.8-6.7-7.7-10.9a23.23,23.23,0,0,1,1.1-12.3v-.1a3.74,3.74,0,0,0-1.3-1.2c-.2-.2-.5-.3-.7-.5l-1-1.4a.85.85,0,0,1,.3-.5,1.12,1.12,0,0,0,.2-1.4,3.22,3.22,0,0,1-.7-2.6c.5-2.8,3.6-3.6,5.7-4.1a6.15,6.15,0,0,0,1.4.1,3.73,3.73,0,0,0,1.2-.2.1.1,0,0,0,.1-.1,7.8,7.8,0,0,1,.4-2.2c.1-.3.2-.7.3-1.1V25a1.8,1.8,0,0,0-.9-.4c-.2,0-.5.1-.7.1a1.27,1.27,0,0,1-.6.1c-.2,0-.5-.1-.9-.6a1.26,1.26,0,0,1,1.4-.9c.4,0,.8.1,1.2.1s.5.1.7.1h.1c.8-.9,1.5-1.8,2.2-2.7a32.69,32.69,0,0,1,3-3.5c.3-2.8,1-5.8,3.2-7.7a1.45,1.45,0,0,1,1,.7l-.2.3a4.45,4.45,0,0,0-1.4,2.5c0,.1,0,.1.1.1s.3.2.5.2.5-.3.6-.5.3-.4.5-.4a3.33,3.33,0,0,0,1-.6,2.55,2.55,0,0,1,1.3-.6,1.42,1.42,0,0,1,.6.2,1.28,1.28,0,0,1,.4,1.4c0,.3-.1.6-.1.9a.55.55,0,0,0,.5.3h.1a.1.1,0,0,0,.1-.1,5.57,5.57,0,0,0,.9-1.9,5.31,5.31,0,0,1,.8-1.7c.1,0,.2.1.3.1s.5.2.6.4v.2a8.45,8.45,0,0,0-.8,2.9.37.37,0,0,0,.4.3h.1c.1,0,.1,0,.1-.1a5.34,5.34,0,0,1,1.8-2.6,1.61,1.61,0,0,0,.9.3,1.33,1.33,0,0,1,1,.6V13c.1.6.1,1.3.6,1.7h.2a1.26,1.26,0,0,0,1-.7c.2-.2.3-.5.5-.5a.76.76,0,0,1,.4.2,1.42,1.42,0,0,0,.6.2c.4,0,.6-.4.7-.7s.2-.5.5-.6h.2a.52.52,0,0,1,.4.2c.3.4,0,1.4-.1,1.8-1.1,2-.9,2.2-.9,2.3a.35.35,0,0,0,.2.1c.8,0,1.4-1.3,2-2.4.2-.4.4-.7.5-.9.1,0,.2.1.3.1a4.35,4.35,0,0,1,.7.4,3,3,0,0,1-.4.8,3.51,3.51,0,0,0-.6,1.8c0,.1,0,.1.1.1s.3.2.5.2.5-.3.6-.5a1.21,1.21,0,0,1,.5-.5,1.61,1.61,0,0,1,.9-.3,2,2,0,0,1,.8.1h.1c.2-.1.3-.4.5-.7s.3-.6.6-.6a.37.37,0,0,1,.3.1c.2.2.2.6.3.9a2,2,0,0,0,.8,1.4c.2.1.3.2.5.2a2,2,0,0,1,1,.8l1.4.8a14.62,14.62,0,0,0-2.5,5.7v.1a.4.4,0,0,0,.4.2h.3a.1.1,0,0,0,.1-.1l.3-.4c1.2-1.6,2.5-3.2,2.9-5.3a.52.52,0,0,1,.4-.2,1.8,1.8,0,0,1,.9.4c.1.1.2.1.3.2l.3.4a22.82,22.82,0,0,1-2,7.4c-.2,1.2-.4,2.5.6,3.6l.3.9a4.19,4.19,0,0,1,.5,2.2V34a1.5,1.5,0,0,0,1.1.4,1.27,1.27,0,0,0,.6-.1c.2,0,.4-.1.6-.1h.4l.6.1a35.25,35.25,0,0,1,8.2,1.7,1,1,0,0,0,.5.4,2.65,2.65,0,0,1,.6.5l-.1.1c-1-.2-2.2-.4-3.4-.6a42.92,42.92,0,0,0-7-.8,13.42,13.42,0,0,0-2.1.1c-.2,0-.3.1-.4.3a1.38,1.38,0,0,0,0,.9,5.65,5.65,0,0,1,2.1,2.8,4,4,0,0,1-.1,1.9c-.3.5-.9.7-1.8.7h-.9a10.14,10.14,0,0,1-1.3.9c-1.2.8-2.5,1.7-2.8,3.4a13.82,13.82,0,0,1-1.3,2.8v.1l.1.1h1a9.9,9.9,0,0,1,4.2.9,9.13,9.13,0,0,1,4.9,5.4,17.63,17.63,0,0,1,.6,4.2,8.75,8.75,0,0,0,.3,2.4,16.71,16.71,0,0,0,2.8,5.7l.3.4c-.3.5-.6.9-.9,1.4-.2-.2-.3-.4-.5-.6a18.86,18.86,0,0,1-2.9-6.2,15,15,0,0,1-.4-2.4,21.78,21.78,0,0,0-.8-4.4c-.7-2.2-2.5-3.1-4-3.9l-.2-.1a18.24,18.24,0,0,0-5.4-1.4h0a.1.1,0,0,0-.1.1,14.7,14.7,0,0,1-1,1.3v.2l.1.1h0a18.32,18.32,0,0,1,2.1-.2,5.09,5.09,0,0,1,3.8,1.2c.7.7.5,1.7.3,3.1l-.1.3q-.45,2.85-4.2,5.4a28.19,28.19,0,0,1-6.5,3.3l-2.1.9a43.18,43.18,0,0,0-4.8,2.1,35.88,35.88,0,0,0-3.5,2.1V71h0c-.8.5-1.5,1-2.2,1.5l-.6.4a40.3,40.3,0,0,0-3.7,3.1c-.7.6-1.3,1.2-2,1.8a5,5,0,0,1-1.7,1c-.4.2-.9.5-1.4.8-.1,0-.1.1,0,.2a.1.1,0,0,0,.1.1h0c.7-.1,1.3-.2,1.9-.3a15.52,15.52,0,0,0,5.1-1.4c1.9-1,4-2.2,6.4-3.7a25.6,25.6,0,0,0,2.6-2,15.47,15.47,0,0,1,3.3-2.4,30.48,30.48,0,0,1,6.9-2.6,7.84,7.84,0,0,1,2.2-.2,16.55,16.55,0,0,1,3.2.3c.5.1.9.1,1.4.2a14.28,14.28,0,0,1,6.5,1.7l.6.4c.3.2.7.4,1,.6-.6.8-1.2,1.6-1.7,2.2a11.12,11.12,0,0,0-5.2-1.3h-.6c-1.8.1-3.6,1.1-5.3,2-.5.3-1,.5-1.5.8-.8.4-1.7.7-2.6,1.1a24.57,24.57,0,0,0-4,1.9c-.2.2-.2.4-.3.6s0,.3-.1.4l-1,.7c-1,.7-1.3.9-2.8,1.9a67.8,67.8,0,0,1-8.4,4.5c-.6.3-1.2.6-1.7.9a23.93,23.93,0,0,1-4.4,1.8C216,87.8,215.05,87.9,214.25,87.9Zm-4.2-6.1h0c-.1.1-.1.1-.1.2a4.18,4.18,0,0,0,3.9,3.8,4.87,4.87,0,0,0,1.2.1c2.6,0,4.9-1.1,7.3-2.3l.1-.1a20.83,20.83,0,0,1,3-1.2,21.73,21.73,0,0,0,5.3-2.6c1-.6,1.4-1,1.9-1.3s.9-.7,1.9-1.4a.37.37,0,0,1,.3-.1.76.76,0,0,0,.4-.1,22.63,22.63,0,0,0,2-1.3,36.35,36.35,0,0,1,6.4-3.6,17.41,17.41,0,0,1,6.6-1.4,9.48,9.48,0,0,1,3,.4h0c.1,0,.1,0,.1-.1s0-.1-.1-.2a11.57,11.57,0,0,0-5.8-1.3,23.17,23.17,0,0,0-5.6.7,26.44,26.44,0,0,0-6.5,2.4,14.76,14.76,0,0,1-2.9,1.2,23.68,23.68,0,0,0-3.6,1.7c-2.3,1.4-4.7,2.8-7.2,4a25.53,25.53,0,0,1-7.7,2.5.37.37,0,0,0-.3.1,10.58,10.58,0,0,1-2.2.3h0c-.4-.2-.9-.2-1.4-.4Zm8.4-16h0c-.1,0-.2.1-.3.2a12.27,12.27,0,0,0-3.5,5.3c-.2.5-.4.9-.6,1.3a16.16,16.16,0,0,0-1.9,7.9.1.1,0,0,0,.1.1h.2a22.87,22.87,0,0,0,3.2-2.6c.5-.4,1-.9,1.5-1.3.7-.6,1.4-1.3,2.1-2a21.85,21.85,0,0,1,3.5-3.2c.8-.5,1.7-1.1,2.7-1.7l.1-.1c.5-2.7.5-3.8.3-4.1h-.1a29.65,29.65,0,0,1-5,.4c-.8-.1-1.6-.1-2.3-.2Zm-4.7-1.2a.1.1,0,0,0-.1.1,28.06,28.06,0,0,0-2.3,3.9c-.3.6-.6,1.1-.8,1.5-.5.8-1,1.6-1.4,2.2-1,1.5-1.7,2.6-1.7,3.7a4.28,4.28,0,0,0,.5,1.8l.1.2a3.35,3.35,0,0,0,2.2,1.6l.2.1h.1l.1-.1a2.54,2.54,0,0,1,.2-.7,2.93,2.93,0,0,0,.3-1,12.43,12.43,0,0,1,1.9-6.9,7.46,7.46,0,0,1,.7-1.2,16.09,16.09,0,0,1,2.7-4.1v-.1l-.1-.1a15.78,15.78,0,0,1-2.6-.9Zm13.3-2.4a1.7,1.7,0,0,0,.7.1c.6,0,1.1.1,1.2.9a1.64,1.64,0,0,1-1,1l-.1.1c-.1.5-.5,2.5-.8,4.1,0,.1,0,.1.1.1h.2l2.1-1.2c.6-.3,1.3-.6,2.2-1a.1.1,0,0,0,.1-.1c-.1-1.4-.2-4,.8-5.4a48.1,48.1,0,0,1,4.2-4.8c.5-.5,1-1,1.5-1.6a3.4,3.4,0,0,1,1.2-1.4,24.22,24.22,0,0,0,2.3-3,9.48,9.48,0,0,0,1.9-3.9c.6-1.9,1.2-3.6,3-4.7.5-.1,1.5-.2,1.5-1.2a.31.31,0,0,1,.2-.1.86.86,0,0,1,.6.3,2.12,2.12,0,0,0,.7.3.52.52,0,0,0,.4-.2,1.78,1.78,0,0,0-.1-1.3,1.74,1.74,0,0,0-1.2-.6,1.75,1.75,0,0,1-1.4-.7,2.61,2.61,0,0,1-.3-.8,1.2,1.2,0,0,0-.2-.8l-.1-.1a1.27,1.27,0,0,0-.6-.1c-1.3,0-1.4,1.3-1.4,2.4a3.58,3.58,0,0,1-.4,1.9c-1.5,3.9-4.7,6.5-9.5,7.8a3.55,3.55,0,0,1-1,.2,6,6,0,0,1-3.2.9,7.35,7.35,0,0,1-3-.7,4.05,4.05,0,0,1-.9-.5,15.92,15.92,0,0,1-6-8.3c-.5-1.6.1-2.8.6-4a7.58,7.58,0,0,0,.6-1.6v-.1l-.1-.1-.4-.1a.1.1,0,0,0-.1.1,13,13,0,0,0-2.1,4.8,4.88,4.88,0,0,0,1.2,4.6h-.1a1.87,1.87,0,0,1-1.4-.8c-1.5-2.2-.9-5-.4-7a1.49,1.49,0,0,1,.3-.8,1.37,1.37,0,0,0,.3-1.3l-.1-.1c-.2,0-.3-.1-.5-.1s-.6.1-.8.1l-.2.1a.1.1,0,0,0-.1.1,8.21,8.21,0,0,1-1.3,3.5,5.58,5.58,0,0,1-.5.8,7.15,7.15,0,0,1-5.9,3.2,6.56,6.56,0,0,1-2.3-.4h0c-.1,0-.1,0-.1.1A20.31,20.31,0,0,0,206,53.1c.7,2.1,2.3,6,5.4,8.1a20.13,20.13,0,0,0,2.5,1.4h.2a.37.37,0,0,1,.3-.1h.1c.1,0,.1.2.1.3s0,.1.1.1a15.72,15.72,0,0,0,6.1,1.1,16.44,16.44,0,0,0,6.3-1.2Zm17.1-8.1a17.49,17.49,0,0,0-4.5.6c-.6.6-1,1.1-1.5,1.6a49.6,49.6,0,0,0-4.6,5.5,8,8,0,0,0-.6,3.9.1.1,0,0,0,.1.1h.2l1.1-.4c.7-.3,1.5-.6,2.3-.9a32,32,0,0,0,5.7-3c2.1-1.4,4.3-2.8,4.6-4.5.1-.7.2-1.9-.2-2.3A4.54,4.54,0,0,0,244.15,54.1Zm-19.3-19.8c-1.5.6-2.1,2.1-2.6,3.6l-.2.6c-.4,1.9.6,3.7,1.5,5.2a17.16,17.16,0,0,0,4.3,3.7,10.28,10.28,0,0,0,1.7.1,16.36,16.36,0,0,0,10.3-3.6,9.8,9.8,0,0,0,2.7-5.8c0-.1,0-.1-.1-.1h-.1c-.1,0-.2-.1-.3-.1s-.2,0-.2.1a1.4,1.4,0,0,1-1.1-.8c.1-.6.6-.8,1.2-.9a3.55,3.55,0,0,0,.9-.4l.1-.1v-.1a10.57,10.57,0,0,0-.8-4,6.86,6.86,0,0,0-5.8-3.7c-4.3.1-9.3.6-13,4,0,0-.1.1,0,.1l.1.6a.1.1,0,0,0,.1.1c.2.1.3.3.5.5a1.6,1.6,0,0,0,.9.7Zm-20.5,1c0,.1-.1.2-.2.3-.3.9.2,1.3.7,1.7s.7.7.6,1.1v.1a1.34,1.34,0,0,0,.8.7c.1.1.3.2.4.3a6.07,6.07,0,0,0,7-2,6.41,6.41,0,0,0,1.6-3.3c0-.1,0-.1-.1-.2a1.27,1.27,0,0,0-.6-.1,2.92,2.92,0,0,0-.9.2,2.35,2.35,0,0,1-.8.2.9.9,0,0,1-.5-.1,2.23,2.23,0,0,1-.9-1,11.76,11.76,0,0,1,2-.7l1.1-.3c.1,0,.1-.1.1-.2-.3-1.1-1.3-1.4-2.3-1.7-.2-.1-.4-.1-.6-.2h-.1c-.1.1-.2.1-.4.1a.84.84,0,0,1-.7-.4l-.1-.1a11,11,0,0,0-1.8-.2,12,12,0,0,0-3.8.8,1.76,1.76,0,0,0-.5.4c-1,.7-2.2,1.5-1.5,3.1.1.7.5.8,1,1A2.25,2.25,0,0,0,204.35,35.3Zm30.9-9.2a8.43,8.43,0,0,1,4.4,1.1c3.1,1,4.5,5.1,5,7.4,0,.1,0,.1.1.1a2.77,2.77,0,0,0,.9.1,2.72,2.72,0,0,0,2.1-.9v-.1a11.69,11.69,0,0,0-.6-2,5.58,5.58,0,0,1-.6-3.1c-.1-.4-.2-.8-.6-.9a1.62,1.62,0,0,1-.5-.9l-.1-.2c-.1,0-.2-.1-.4-.1a1.45,1.45,0,0,0-.7.2c-.2.1-.3.2-.5.2l-1.2-1.1a.75.75,0,0,1-.1-.5c-.1-.4-.1-.9-.8-.9a.82.82,0,0,1-.4-.6.1.1,0,0,0-.1-.1H241a1.42,1.42,0,0,1-.6-.2,2.35,2.35,0,0,0-.8-.2.6.6,0,0,0-.6.3,2.66,2.66,0,0,0-1.2-.3,1.8,1.8,0,0,0-1.6.9h-.1c-.3,0-.4-.2-.6-.5a1.26,1.26,0,0,0-1-.7h-.1c-.2.1-.2.1-.3.1a.66.66,0,0,1-.5-.4,1.79,1.79,0,0,0-.7-.5,1.29,1.29,0,0,1-.1-1.2,2,2,0,0,0,0-1.1.1.1,0,0,0-.1-.1h-.2a1.15,1.15,0,0,0-.9.6c-.1.1-.1.2-.2.2s-.2.1-.3.2-.4.3-.6.3c0,0-.2,0-.3-.4-.4-.4-.7-.6-1-.6-.5,0-.7.4-1,.8s-.5.8-.9.8a.91.91,0,0,0-.7-.3,1,1,0,0,0-.7.4.86.86,0,0,1-.6.3h-.1c-.8-.3-1.2-1.2-1-2.6,0-.1,0-.1-.1-.2l-.4-.1a.1.1,0,0,0-.1.1,2.47,2.47,0,0,1-1.6.8c-.3.1-.7.2-1,.3h-.5c-.2,0-.4,0-.5-.4a.1.1,0,0,0-.1-.1,4.28,4.28,0,0,1-1.6-.5,4.18,4.18,0,0,0-1-.4h0a.1.1,0,0,0-.1.1,6.79,6.79,0,0,1-1.2,1.2c-.9.9-1.8,1.7-1.8,3,0,.1,0,.1.1.1a26.43,26.43,0,0,1,3.7,2,9.5,9.5,0,0,0,1.7,1,7.64,7.64,0,0,0,.9.9c.8.7,1.6,1.4,1.5,2.4,0,.1,0,.1.1.2l.3.1h.1a19.51,19.51,0,0,1,9.8-4l.8-.1A6.43,6.43,0,0,0,235.25,26.1ZM217,31.9a7.84,7.84,0,0,1,1.4.2,7.84,7.84,0,0,0,1.4.2c1.1,0,1.6-.5,1.8-1.6v-.1h-.1c-1.1,0-1.7-.8-2.3-1.6-.3-.4-.6-.7-.9-1.1l-3-1.9-.1-.1a4.92,4.92,0,0,0-1.7-.6c-.4,0-.9.2-.9,1l-.1.2a3.91,3.91,0,0,0-.2,2.4.1.1,0,0,0,.1.1,6.93,6.93,0,0,1,4.1,2.9l.1.1h0C216.65,31.9,216.75,31.9,217,31.9Zm7.6,28a5.66,5.66,0,0,1-5.7-4.2,1.88,1.88,0,0,0-.2-.8c-.2-.9-.5-1.7-.7-2.6a8.33,8.33,0,0,1-.4-1.5,9.29,9.29,0,0,1-.5-1c-.5-1-1-2.2-2.1-2.2a.75.75,0,0,0-.5.1,3.75,3.75,0,0,1-2.3-1.1,2.61,2.61,0,0,1-.5-2.5c.5-1.3,1.8-1.8,3.1-2.2.5-.2.9-.3,1.3-.5h.1c.2,0,.4.2.6.4s.3.4.5.4a.76.76,0,0,1-.1.9,13,13,0,0,1-1.3.3c-1.3.2-2.9.5-2.6,2.5a1.7,1.7,0,0,0,1.3.6,3.63,3.63,0,0,0,1.7-.7,2.27,2.27,0,0,1,1.2-.6c.3,0,.8.2,1.4,1.5a21.28,21.28,0,0,0,1.2,6.5,1.27,1.27,0,0,0,.1.6,2,2,0,0,0,2.1,1.7,9,9,0,0,0,3-.8,9.61,9.61,0,0,1,2.6-.8,4.88,4.88,0,0,0,.7-.3l.2-.1c.2-.1.5-.3.7-.4a8.77,8.77,0,0,1,4.5-1.8,2.77,2.77,0,0,1,.9.1.85.85,0,0,1,.6.2c.1.1.1.2.1.4a1.27,1.27,0,0,1-.1.6,15.47,15.47,0,0,1-5.8,5.5,2.51,2.51,0,0,1-.7.4,8.08,8.08,0,0,1-4.4,1.4Zm8-6.7a2.35,2.35,0,0,0-.8.2c-1.1.6-1.9,1.1-2.8,1.5l-.6.3c-1.4,1.3-3.3,1.3-5.3,1.3-.1,0-.1,0-.1.1v.2a4.28,4.28,0,0,0,2.9,1.6,5.1,5.1,0,0,0,2.9-1.3s.7-.3.9-.4c1.5-.6,2.9-1.6,3.1-3.4v-.1Zm2.9-10.4c-.3,0-.7-.4-.9-.7a1.28,1.28,0,0,1-.2-1.3,4.11,4.11,0,0,1,2.1-1.2.76.76,0,0,0,.4.2.64.64,0,0,1,.5.5c-.1.1-.1.3-.2.5-.3.8-.6,1.7-1.5,1.9C235.55,42.8,235.55,42.8,235.45,42.8Zm-23.8-6.1c-.3,0-.7-.3-.7-.6-.1-.7.6-1,.8-1.1h.1c.1,0,.3.3.3.6,0,.1,0,.2.1.2a.87.87,0,0,1-.6.9Z"/><use width="161.3" height="68" transform="translate(0 14.84)" xlink:href="#Logo-main"/></g></g></svg>