<?xml version="1.0" encoding="utf-8"?>
<!-- Generator: Adobe Illustrator 16.0.4, SVG Export Plug-In . SVG Version: 6.00 Build 0)  -->
<!DOCTYPE svg PUBLIC "-//W3C//DTD SVG 1.1//EN" "http://www.w3.org/Graphics/SVG/1.1/DTD/svg11.dtd" [
	<!ENTITY ns_flows "http://ns.adobe.com/Flows/1.0/">
	<!ENTITY ns_extend "http://ns.adobe.com/Extensibility/1.0/">
	<!ENTITY ns_ai "http://ns.adobe.com/AdobeIllustrator/10.0/">
	<!ENTITY ns_graphs "http://ns.adobe.com/Graphs/1.0/">
]>
<svg version="1.1" id="Layer_1" xmlns:x="&ns_extend;" xmlns:i="&ns_ai;" xmlns:graph="&ns_graphs;"
	 xmlns="http://www.w3.org/2000/svg" xmlns:xlink="http://www.w3.org/1999/xlink" xmlns:a="http://ns.adobe.com/AdobeSVGViewerExtensions/3.0/"
	 x="0px" y="0px" width="340.2px" height="141.7px" viewBox="0 0 340.2 141.7" enable-background="new 0 0 340.2 141.7"
	 xml:space="preserve">
<symbol  id="Logo-main" viewBox="0 -68 161.3 68">
	<path fill="#ffffff" d="M6.9-21.4v-15.8h0.5l5.9,15.8h7.8l-8.3-16.7c3.7-1.5,5-4.8,6-9.2c0.8-3.6,1.4-7,2.4-10.3h-7
		c-0.9,2.6-1.4,5.6-2,8.4c-0.9,4.3-1.9,7-4.7,7H6.9v-15.4H0v36.3H6.9z M31.9-58.1c-6.3,0-10.1,5-10.1,13.5c0,9.4,5,13.7,10.2,13.7
		c6.2,0,10-5.2,10-13.5C41.9-55.3,35.9-58.1,31.9-58.1L31.9-58.1z M32-52.7c2.3,0,2.9,4.4,2.9,8.2c0,3.7-0.6,8.2-3,8.2
		c-2.6,0-3.1-4.5-3.1-8.2C28.8-48.9,29.5-52.7,32-52.7L32-52.7z M44.8-39.7c0,3.2-0.1,5.8-0.2,8.3h6.1l0.4-3.1h0.1
		c1.1,2.1,3.1,3.5,5.6,3.5c5.8,0,8.1-6.3,8.1-13.6c0-9.4-4.1-13.6-8.6-13.6c-2.2,0-3.6,1.3-4.4,2.5h-0.1V-68h-7.1V-39.7z M51.9-48.1
		c0-0.9,0.1-1.7,0.4-2.2c0.5-1.6,1.5-2,2.3-2c2.5,0,3.4,3.7,3.4,7.8c0,5-1.2,7.7-3.3,7.7c-1.1,0-2.1-1-2.4-2.2
		c-0.3-0.5-0.3-1.2-0.3-1.9V-48.1z M74.2-31.3V-37c0-4.8-0.3-9.4-0.5-12.1h0.2c0.9,2.7,2,5.7,2.9,7.8l4,10.1h6.7v-26.3H81v5.8
		c0,5.3,0.3,8.3,0.5,11.8h-0.2c-0.9-2.8-1.6-4.9-2.6-7.5c-0.7-1.8-2.8-6.9-4.3-10.1h-6.6v26.3H74.2z M106.8-21.5l-0.1-9.3
		c6.7-1.1,10.3-6.1,10.3-13.8c0-7.7-3.3-12.7-10.3-13.6l0.1-9.8h-6.3l0.1,9.8c-7,0.9-10.3,5.8-10.3,13.6c0,7.5,3.5,12.5,10.3,13.7
		l-0.1,9.4H106.8z M100.6-35.1c-3.4-1.5-4.1-5.9-4.1-9.4c0-4,0.9-8.1,4.1-9.4V-35.1z M106.7-53.9c3.2,1.3,4.1,5.3,4.1,9.5
		c0,3.4-0.8,7.8-4.1,9.3V-53.9z M126-47c0-4.1,2.4-5.6,5.5-5.6c2,0,3.7,0.4,5,0.9l0.9-5c-1.8-0.8-4.5-1.2-7.2-1.2
		c-7.2,0-11.1,4.7-11.1,13c0,8.8,4.6,14.1,10.5,14.1c5.7,0,8.9-4.5,8.9-12.4c0-1.9-0.1-2.9-0.2-3.7H126z M132.2-42c0,3.3-0.9,6-3,6
		c-2.3,0-3.2-3.3-3.3-6H132.2z M147.9-31.3V-37c0-4.8-0.3-9.4-0.5-12.1h0.2c0.9,2.7,2,5.7,2.9,7.8l4,10.1h6.7v-26.3h-6.4v5.8
		c0,5.3,0.3,8.3,0.5,11.8H155c-0.9-2.8-1.6-4.9-2.6-7.5c-0.7-1.8-2.8-6.9-4.3-10.1h-6.6v26.3H147.9z M148.8-21.1
		c0.1-2.1,1-3.3,2.4-3.3c1.7,0,2.5,1.3,2.5,3.3h4.3c-0.2-4.2-2.6-6.7-7-6.7c-4.3,0-6.4,2.5-6.6,6.7H148.8z M8.1-0.2v-1.6H2.4v-12.8
		H0.5v14.3H8.1z M11-0.2v-6c0-2.3,0-4.1-0.2-6.1l0,0c0.7,1.5,1.6,3,2.7,4.7l4.6,7.4h1.8v-14.3h-1.7v6.1c0,2.3,0,4,0.2,5.8l-0.1,0
		c-0.7-1.6-1.7-3.2-2.7-4.8l-4.5-7.1h-2v14.3H11z M34.9-8.3c-0.1,2-0.2,4.4-0.2,6.2h-0.1c-0.5-1.7-1.1-3.5-1.8-5.5l-2.5-7h-1.4
		l-2.3,6.8c-0.7,2-1.3,3.9-1.7,5.6h0c0-1.8-0.2-4.2-0.3-6.3l-0.4-6.2h-1.8l1,14.3h2.4l2.4-6.9c0.6-1.8,1.1-3.3,1.4-4.8h0.1
		c0.4,1.5,0.9,3,1.5,4.8l2.6,6.9h2.4l0.9-14.3h-1.8L34.9-8.3z M41.4-0.2v-6h6.9v6h1.9v-14.3h-1.9v6.7h-6.9v-6.7h-1.9v14.3H41.4z
		 M55.3-10.1l-1.5-4.5h-1.9l4.9,14.3H59l4.9-14.3h-2l-1.5,4.5H55.3z M60-8.6l-1.4,4.1c-0.3,0.9-0.5,1.8-0.7,2.6h0
		c-0.2-0.9-0.4-1.7-0.7-2.6l-1.4-4.1H60z M65.2-1.1C66.2-0.4,67.5,0,69,0c2.5,0,4.2-1.3,4.2-3.5c0-1.8-1.3-3.1-3-3.5v0
		c2-0.2,3.5-1.5,3.5-3.6c0-3-2.6-4.2-5.2-4.2c-1.3,0-2.7,0.3-3.7,0.9l0.5,1.4c0.8-0.4,2-0.9,3.2-0.9c2.1,0,3.3,1.2,3.3,2.7
		c0,2.2-2.1,2.8-3.9,2.8h-0.9v1.4h0.9c1.9,0,3.4,1.2,3.4,2.6c0,1.4-1,2.3-2.6,2.3c-1.1,0-2.2-0.4-3-0.9L65.2-1.1z M77.6-0.2v-6
		c0-2.3,0-4.1-0.2-6.1l0,0c0.7,1.5,1.6,3,2.7,4.7l4.6,7.4h1.8v-14.3h-1.7v6.1c0,2.3,0,4,0.2,5.8l-0.1,0c-0.7-1.6-1.7-3.2-2.7-4.8
		l-4.5-7.1h-2v14.3H77.6z M88.1-14.6c0.2,0.4,0.4,0.8,0.6,1.3c0.6,1.6,1,3.6,2.2,4.8c0.3,0.3,0.8,0.6,1.2,0.7v0.1
		c-1.8,0.3-3.2,1.6-3.2,3.5c0,1.3,0.5,2.3,1.3,2.9c0.9,0.7,2.3,1.1,4.1,1.1c1.2,0,2.5-0.1,3.4-0.3v-14.1h-1.8v6.2h-1.4
		c-0.9,0-1.6-0.2-2.1-0.7c-1-1-1.4-3.1-1.9-4.5c-0.2-0.4-0.3-0.7-0.5-1H88.1z M95.9-1.7c-0.3,0.1-0.9,0.2-1.7,0.2
		c-1.8,0-3.4-0.7-3.4-2.7C90.7-6,92.3-7,94.3-7c0.6,0,1.2,0,1.6,0V-1.7z M108.7-14.6v13.9h2l3.6-6.9c0.9-1.6,1.6-3.2,2.2-4.6l0,0
		c-0.2,1.9-0.2,3.6-0.2,5.8v5.7h1.7v-13.9h-1.9l-3.7,7c-0.8,1.5-1.5,3.1-2.2,4.7l-0.1,0c0.1-1.8,0.1-3.5,0.1-5.9v-5.7H108.7z
		 M122.6-1c2,0,3.3-1.4,3.3-3.7c0-2.7-1.7-3.7-3.4-3.7c-1.9,0-3.4,1.3-3.4,3.6C119.2-2.3,120.7-1,122.6-1L122.6-1z M119.8-9.3h5.6
		v-1.1h-5.6V-9.3z M122.5-2c-1.2,0-1.8-1.4-1.8-2.7c0-1.5,0.8-2.6,1.8-2.6c1.1,0,1.8,1.1,1.8,2.7C124.4-3.4,123.9-2,122.5-2L122.5-2
		z M131.2-14.6v1.2l1.5,1.4c3.5,3.4,5.1,5.2,5.1,7.2c0,1.4-0.7,2.7-2.7,2.7c-1.3,0-2.3-0.6-2.9-1.2l-0.6,1.3c1,0.8,2.3,1.4,3.9,1.4
		c3,0,4.2-2,4.2-4c0-2.6-1.9-4.6-4.8-7.4l-1.1-1v0h6.2v-1.6H131.2z M145.7-2.5L145.7-2.5l-2.4-1.3l-0.4,1.4l3,1.6h1.6v-13.8h-1.8
		V-2.5z M161.3-7.5c0-4.7-1.7-7.3-4.8-7.3c-2.7,0-4.5,2.5-4.6,7.1c0,4.6,2,7.2,4.8,7.2C159.7-0.5,161.3-3.1,161.3-7.5 M153.8-7.7
		c0-3.6,1.1-5.6,2.8-5.6c1.9,0,2.8,2.2,2.8,5.8c0,3.4-0.9,5.6-2.8,5.6C155-2,153.8-4,153.8-7.7"/>
</symbol>
<g>
	<g>
		<circle fill="#FFFFFF" cx="263.9" cy="70.9" r="45.9"/>
		<g>
			<path fill="#EA5B0C" d="M305.5,63.3c0.1-0.1,0.2-0.1,0.3-0.2c0.5,2.5,0.7,5.1,0.7,7.7c0,7.7-2.1,14.9-5.7,21.2
				c-1-1.5-1.6-2.3-2.4-5.1c-0.1-0.4-0.2-1.1-0.2-1.9c-0.1-1.3-0.1-2.9-0.7-4.7c-0.9-2.8-2.9-5.1-5.9-6.6c-1-0.5-2.1-0.8-3.3-1
				c0.1-0.2,0.2-0.5,0.2-0.7c0-0.1,0.1-0.2,0.1-0.3c0.1-0.9,0.7-1.3,1.9-2.1c0.3-0.2,0.6-0.4,0.9-0.6c0.1,0,0.1,0,0.2,0
				c1.5,0,2.6-0.5,3.4-1.6c0.1-0.1,0.2-0.3,0.2-0.4c0.2-0.8,0.5-1.8,0.1-3c-0.2-0.6-0.4-1.2-0.8-1.7c1.9,0.1,4,0.4,6,0.8
				c1.2,0.2,2.4,0.4,3.5,0.6c0.1,0,0.2,0,0.2,0c0.3,0,0.6-0.1,0.9-0.2L305.5,63.3z M247.3,104.7c-0.1-0.1-0.1-0.2-0.1-0.3
				c-1.2-2.6-0.9-5.7,1.1-9.7c0.8-1.5,1.9-2.9,3.2-4.5c0.2-0.2,0.4-0.5,0.6-0.7c-3.6-2.5-6.7-7.2-7.6-11.5c-1-4.8-0.1-9,0.9-12.3
				c-0.1-0.1-0.2-0.1-0.3-0.2c-0.3-0.2-0.6-0.4-0.9-0.7c-0.1-0.1-0.2-0.2-0.2-0.3l-1.1-1.5c-0.3-0.4-0.4-0.8-0.3-1.2
				c0.1-0.5,0.3-0.9,0.5-1.2c-0.7-1.3-0.9-2.6-0.6-3.6c0.7-3.9,4.9-4.9,7.1-5.4c0.1,0,0.3,0,0.4,0c0.1,0,0.1,0,0.2,0
				c0.3,0,0.6,0.1,0.9,0.1c0-0.1,0-0.1,0-0.2c-0.7,0-1.6-0.4-2.3-1.6c-0.2-0.4-0.3-0.9-0.2-1.3c0.2-0.7,0.9-2.3,3.2-2.3
				c0.4,0,0.9,0.1,1.2,0.1c0.5-0.6,1-1.3,1.6-1.9c0.8-1.1,1.7-2.2,2.7-3.3c0.4-2.8,1.2-6.1,3.8-8.3c0.3-0.3,0.7-0.4,1.1-0.4
				c0.2,0,0.4,0,0.6,0.1c0.5,0.2,1.6,0.6,2.1,1.7c0.2-0.1,0.4-0.1,0.7-0.1c0.5,0,1,0.1,1.5,0.4c0,0,0,0,0,0c0.1-0.2,0.2-0.4,0.4-0.6
				c0.3-0.4,0.8-0.7,1.4-0.7c0.3,0,0.7,0.1,1,0.3c0,0,0,0,0,0c0,0,0,0,0.1,0c0.3,0.1,0.9,0.4,1.3,0.9c0.1,0,0.1,0,0.2,0
				c0.4,0,0.7,0.1,1,0.3c0.1,0,0.2,0,0.2,0.1c0.5,0.1,1.5,0.4,2.2,1.4c0,0.1,0.1,0.1,0.1,0.2c0.2-0.1,0.4-0.1,0.6-0.1
				c0.2,0,0.3,0,0.5,0c0.3-0.4,0.7-0.7,1.3-0.9c0.1,0,0.3-0.1,0.4-0.1c0.4,0,0.8,0.1,1.1,0.4c0,0,0,0,0.1,0c0.3,0.1,0.7,0.3,1.1,0.6
				c0,0,0,0,0.1,0c0.3,0,0.6,0.1,0.8,0.2l1.2,0.7c0.4,0.2,0.7,0.6,0.8,0.9c0.4-0.5,0.9-0.9,1.8-0.9c0.5,0,0.9,0.2,1.4,0.5
				c0.1,0.1,0.3,0.2,0.4,0.4c0.5,0.6,0.6,1.2,0.7,1.6c0,0.1,0,0.2,0.1,0.2c0.1,0,0.2,0.1,0.2,0.1c0.4,0.2,1,0.5,1.5,1l1.2,0.6
				c0.3-0.1,0.5-0.1,0.8-0.1c0.8,0,1.4,0.4,1.9,0.7c0.1,0,0.2,0.1,0.2,0.1c0.2,0.1,0.4,0.3,0.6,0.5l0.3,0.5c0.2,0.3,0.3,0.7,0.3,1.1
				c-0.2,2.5-0.8,5.1-2,7.9c-0.1,1-0.2,1.4,0.2,1.8c0.2,0.2,0.3,0.4,0.4,0.7c0.1,0.3,0.2,0.5,0.3,0.8c0.2,0.4,0.4,0.9,0.5,1.5
				c0.2,0,0.4,0,0.7,0c0.3,0,0.5,0,0.8,0.1l0.5,0.1c2.7,0.4,5.7,0.8,8.5,1.7c0.3,0.1,0.5,0.3,0.7,0.5c0,0,0.1,0.1,0.2,0.1
				c0,0,0.1,0.1,0.1,0.1c-4.9-18.1-21.4-31.4-41.1-31.4c-23.5,0-42.5,19-42.5,42.5c0,16.2,9.1,30.3,22.5,37.5
				C244.8,107,245.9,105.8,247.3,104.7z"/>
			<path fill="#00656C" d="M256.3,112.9c-0.9,0-2.1-0.1-2.9-0.6c-1.7-1.1-2.8-4-3-6.2c0-0.1,0-0.1-0.1-0.1c0,0,0,0-0.1,0
				c0,0-0.1,0-0.1,0c-1.1,0.8-2.2,2.1-3.2,3.7c-0.4-0.2-0.8-0.4-1.2-0.6c1.1-1.5,2.4-2.7,4.1-3.9c0,0,0.1-0.1,0.1-0.1
				c0,0,0-0.1,0-0.1c-0.1-0.1-0.2-0.2-0.3-0.3c-0.3-0.3-0.6-0.8-0.7-1c-1-2.1-0.6-4.7,1.1-8.1c0.7-1.3,1.7-2.6,3-4.2
				c0.6-0.7,1.2-1.4,1.8-2.2c0,0,0-0.1,0-0.1c0,0,0-0.1-0.1-0.1c-0.3-0.1-0.5-0.3-0.7-0.4c-3.5-2-6.8-6.7-7.7-10.9
				c-1-4.8,0-8.9,1.1-12.3c0,0,0-0.1,0-0.1c-0.3-0.5-0.8-0.9-1.3-1.2c-0.2-0.2-0.5-0.3-0.7-0.5l-1-1.4c0-0.2,0.2-0.4,0.3-0.5
				c0.3-0.3,0.5-0.7,0.2-1.4c-0.7-1-0.9-2-0.7-2.6c0.5-2.8,3.6-3.6,5.7-4.1c0.4,0.1,0.9,0.1,1.4,0.1c0.5,0,0.9-0.1,1.2-0.2
				c0.1,0,0.1-0.1,0.1-0.1c0-0.8,0.2-1.5,0.4-2.2c0.1-0.3,0.2-0.7,0.3-1.1c0-0.1,0-0.1,0-0.1c-0.3-0.2-0.6-0.4-0.9-0.4
				c-0.2,0-0.5,0.1-0.7,0.1c-0.2,0.1-0.4,0.1-0.6,0.1c-0.2,0-0.5-0.1-0.9-0.6c0.2-0.6,0.6-0.9,1.4-0.9c0.4,0,0.8,0.1,1.2,0.1
				c0.3,0,0.5,0.1,0.7,0.1c0,0,0,0,0,0c0,0,0.1,0,0.1,0c0.8-0.9,1.5-1.8,2.2-2.7c0.9-1.2,1.9-2.4,3-3.5c0.3-2.8,1-5.8,3.2-7.7
				c0.4,0.1,0.8,0.3,1,0.7l-0.2,0.3c-0.6,0.7-1.3,1.4-1.4,2.5c0,0.1,0,0.1,0.1,0.1c0.2,0.1,0.3,0.2,0.5,0.2c0.3,0,0.5-0.3,0.6-0.5
				c0.2-0.3,0.3-0.4,0.5-0.4c0.4-0.1,0.7-0.4,1-0.6c0.4-0.3,0.9-0.6,1.3-0.6c0.2,0,0.4,0.1,0.6,0.2c0.5,0.4,0.5,0.9,0.4,1.4
				c0,0.3-0.1,0.6-0.1,0.9c0.1,0.2,0.3,0.3,0.5,0.3c0.1,0,0.1,0,0.1,0c0,0,0,0,0,0c0,0,0.1,0,0.1-0.1c0.4-0.5,0.7-1.2,0.9-1.9
				c0.2-0.6,0.4-1.2,0.8-1.7c0.1,0,0.2,0.1,0.3,0.1c0.2,0.1,0.5,0.2,0.6,0.4c0,0,0,0.1,0,0.2c-0.5,1-0.7,2-0.8,2.9
				c0.1,0.3,0.3,0.3,0.4,0.3c0.1,0,0.1,0,0.1,0c0,0,0,0,0,0c0.1,0,0.1,0,0.1-0.1c0.4-1,0.9-2,1.8-2.6c0.3,0.2,0.6,0.3,0.9,0.3
				c0.4,0.1,0.8,0.2,1,0.6c0,0.1,0,0.3,0,0.5c0.1,0.6,0.1,1.3,0.6,1.7c0,0,0.1,0,0.2,0c0.5,0,0.8-0.4,1-0.7c0.2-0.2,0.3-0.5,0.5-0.5
				c0.1,0,0.3,0.1,0.4,0.2c0.2,0.1,0.4,0.2,0.6,0.2c0.4,0,0.6-0.4,0.7-0.7c0.1-0.3,0.2-0.5,0.5-0.6c0.1,0,0.2,0,0.2,0
				c0.2,0,0.3,0.1,0.4,0.2c0.3,0.4,0,1.4-0.1,1.8c-1.1,2-0.9,2.2-0.9,2.3c0,0,0.1,0.1,0.2,0.1c0.8,0,1.4-1.3,2-2.4
				c0.2-0.4,0.4-0.7,0.5-0.9c0.1,0,0.2,0.1,0.3,0.1c0.2,0.1,0.6,0.3,0.7,0.4c-0.1,0.3-0.2,0.5-0.4,0.8c-0.3,0.5-0.6,1.1-0.6,1.8
				c0,0.1,0,0.1,0.1,0.1c0.2,0.1,0.3,0.2,0.5,0.2c0.3,0,0.5-0.3,0.6-0.5c0.1-0.2,0.3-0.4,0.5-0.5c0.3-0.2,0.6-0.3,0.9-0.3
				c0.3,0,0.6,0,0.8,0.1c0,0,0,0,0,0c0,0,0.1,0,0.1,0c0.2-0.1,0.3-0.4,0.5-0.7c0.2-0.3,0.3-0.6,0.6-0.6c0.1,0,0.2,0,0.3,0.1
				c0.2,0.2,0.2,0.6,0.3,0.9c0.1,0.5,0.3,1.1,0.8,1.4c0.2,0.1,0.3,0.2,0.5,0.2c0.4,0.2,0.8,0.4,1,0.8l1.4,0.8
				c-1.2,1.7-2.1,3.6-2.5,5.7c0,0,0,0.1,0,0.1c0.1,0.2,0.3,0.2,0.4,0.2c0.1,0,0.1,0,0.2,0c0,0,0,0,0.1,0c0,0,0.1,0,0.1-0.1l0.3-0.4
				c1.2-1.6,2.5-3.2,2.9-5.3c0.1-0.1,0.2-0.2,0.4-0.2c0.3,0,0.6,0.2,0.9,0.4c0.1,0.1,0.2,0.1,0.3,0.2l0.3,0.4
				c-0.2,2.3-0.8,4.7-2,7.4c-0.2,1.2-0.4,2.5,0.6,3.6c0.1,0.3,0.2,0.6,0.3,0.9c0.3,0.7,0.6,1.4,0.5,2.2c0,0,0,0.1,0,0.1
				c0.3,0.3,0.7,0.4,1.1,0.4c0.2,0,0.4,0,0.6-0.1c0.2,0,0.4-0.1,0.6-0.1c0.2,0,0.3,0,0.4,0l0.6,0.1c2.6,0.3,5.5,0.7,8.2,1.7
				c0.1,0.2,0.3,0.3,0.5,0.4c0.2,0.1,0.4,0.3,0.6,0.5l-0.1,0.1c-1-0.2-2.2-0.4-3.4-0.6c-2.3-0.4-4.8-0.8-7-0.8c-0.8,0-1.5,0-2.1,0.1
				c-0.2,0-0.3,0.1-0.4,0.3c-0.1,0.2-0.1,0.6,0,0.9c1,0.7,1.8,1.8,2.1,2.8c0.2,0.7,0,1.3-0.1,1.9c-0.3,0.5-0.9,0.7-1.8,0.7l0,0
				c-0.2,0-0.5,0-0.8,0c0,0,0,0,0,0c0,0-0.1,0-0.1,0c-0.4,0.3-0.9,0.7-1.3,0.9c-1.2,0.8-2.5,1.7-2.8,3.4c-0.3,0.9-0.7,1.8-1.3,2.8
				c0,0,0,0.1,0,0.1c0,0,0.1,0.1,0.1,0.1c0,0,0,0,0,0c0.3,0,0.6,0,1,0c1.5,0,2.9,0.3,4.2,0.9c1.7,0.8,4,2.5,4.9,5.4
				c0.5,1.6,0.5,3,0.6,4.2c0,0.9,0.1,1.7,0.3,2.4c1,3.1,1.6,4,2.8,5.7l0.3,0.4c-0.3,0.5-0.6,0.9-0.9,1.4c-0.2-0.2-0.3-0.4-0.5-0.6
				c-1.4-2-1.9-3.1-2.9-6.2c-0.2-0.7-0.3-1.5-0.4-2.4c-0.1-1.2-0.3-2.7-0.8-4.4c-0.7-2.2-2.5-3.1-4-3.9l-0.2-0.1
				c-2.5-1.2-5.1-1.3-5.4-1.4c0,0,0,0,0,0c0,0-0.1,0-0.1,0.1c-0.3,0.5-0.7,0.9-1,1.3c0,0,0,0.1,0,0.2c0,0,0.1,0.1,0.1,0.1
				c0,0,0,0,0,0c0.8-0.1,1.5-0.2,2.1-0.2c1.8,0,3,0.4,3.8,1.2c0.7,0.7,0.5,1.7,0.3,3.1l-0.1,0.3c-0.3,1.9-1.7,3.7-4.2,5.4
				c-2.4,1.7-5.1,2.8-6.5,3.3c-0.7,0.3-1.4,0.6-2.1,0.9c-1.7,0.7-3.4,1.3-4.8,2.1c-1.1,0.6-2.2,1.2-3.5,2.1c0,0,0,0,0,0.1
				c0,0,0,0,0,0c-0.8,0.5-1.5,1-2.2,1.5l-0.6,0.4c-1.4,1-2.6,2.1-3.7,3.1c-0.7,0.6-1.3,1.2-2,1.8c-0.6,0.5-1.1,0.8-1.7,1
				c-0.4,0.2-0.9,0.5-1.4,0.8c-0.1,0-0.1,0.1,0,0.2c0,0.1,0.1,0.1,0.1,0.1c0,0,0,0,0,0c0.7-0.1,1.3-0.2,1.9-0.3
				c1.8-0.3,3.4-0.5,5.1-1.4c1.9-1,4-2.2,6.4-3.7c0.9-0.6,1.8-1.3,2.6-2c1-0.9,2.1-1.8,3.3-2.4c2.2-1.2,4.6-2,6.9-2.6
				c0.7-0.2,1.4-0.2,2.2-0.2c1.1,0,2.2,0.1,3.2,0.3c0.5,0.1,0.9,0.1,1.4,0.2c2.3,0.2,4.6,0.5,6.5,1.7l0.6,0.4c0.3,0.2,0.7,0.4,1,0.6
				c-0.6,0.8-1.2,1.6-1.7,2.2c-1.7-0.9-3.5-1.3-5.2-1.3c-0.2,0-0.4,0-0.6,0c-1.8,0.1-3.6,1.1-5.3,2c-0.5,0.3-1,0.5-1.5,0.8
				c-0.8,0.4-1.7,0.7-2.6,1.1c-1.4,0.6-2.8,1.1-4,1.9c-0.2,0.2-0.2,0.4-0.3,0.6c0,0.2,0,0.3-0.1,0.4l-1,0.7c-1,0.7-1.3,0.9-2.8,1.9
				c-2.6,1.8-5.6,3.1-8.4,4.5c-0.6,0.3-1.2,0.6-1.7,0.9c-1.5,0.7-2.8,1.4-4.4,1.8C258,112.8,257.1,112.9,256.3,112.9z M252.1,106.8
				C252.1,106.8,252.1,106.8,252.1,106.8c-0.1,0.1-0.1,0.1-0.1,0.2c0.4,2.3,1.6,3.4,3.9,3.8c0.4,0.1,0.8,0.1,1.2,0.1
				c2.6,0,4.9-1.1,7.3-2.3l0.1-0.1c0.9-0.5,1.9-0.8,3-1.2c1.8-0.7,3.7-1.4,5.3-2.6c1-0.6,1.4-1,1.9-1.3c0.5-0.4,0.9-0.7,1.9-1.4
				c0.1-0.1,0.2-0.1,0.3-0.1c0.1,0,0.2,0,0.4-0.1c0.7-0.4,1.3-0.8,2-1.3c2-1.3,4.1-2.7,6.4-3.6c2.5-1,4.6-1.4,6.6-1.4
				c1.1,0,2.1,0.1,3,0.4c0,0,0,0,0,0c0.1,0,0.1,0,0.1-0.1c0-0.1,0-0.1-0.1-0.2c-1.6-0.9-3.5-1.3-5.8-1.3c-1.7,0-3.6,0.2-5.6,0.7
				c-2.4,0.6-4.5,1.3-6.5,2.4c-0.9,0.5-1.9,0.9-2.9,1.2c-1.2,0.5-2.5,1-3.6,1.7c-2.3,1.4-4.7,2.8-7.2,4c-2.8,1.4-5.2,2.1-7.7,2.5
				c-0.1,0-0.2,0-0.3,0.1c-0.5,0.1-1.3,0.3-2.2,0.3l0,0C253.1,107,252.6,107,252.1,106.8C252.1,106.8,252.1,106.8,252.1,106.8z
				 M260.5,90.8C260.5,90.8,260.4,90.8,260.5,90.8c-0.1,0-0.2,0.1-0.3,0.2c-1.9,1.6-2.8,3.5-3.5,5.3c-0.2,0.5-0.4,0.9-0.6,1.3
				c-1.6,3.3-2.1,6.4-1.9,7.9c0,0,0,0.1,0.1,0.1c0,0,0,0,0.1,0c0,0,0.1,0,0.1,0c1-0.6,2.1-1.6,3.2-2.6c0.5-0.4,1-0.9,1.5-1.3
				c0.7-0.6,1.4-1.3,2.1-2c1-1.1,2.1-2.2,3.5-3.2c0.8-0.5,1.7-1.1,2.7-1.7c0,0,0.1-0.1,0.1-0.1c0.5-2.7,0.5-3.8,0.3-4.1
				c0,0-0.1,0-0.1,0c0,0,0,0,0,0c-1.8,0.3-3.4,0.4-5,0.4C262,90.9,261.2,90.9,260.5,90.8C260.5,90.8,260.5,90.8,260.5,90.8z
				 M255.8,89.6c0,0-0.1,0-0.1,0.1c-1,1.4-1.7,2.7-2.3,3.9c-0.3,0.6-0.6,1.1-0.8,1.5c-0.5,0.8-1,1.6-1.4,2.2c-1,1.5-1.7,2.6-1.7,3.7
				c0,0.7,0.3,1.4,0.5,1.8l0.1,0.2c0.5,1,1.5,1.4,2.2,1.6l0.2,0.1c0,0,0,0,0,0c0,0,0.1,0,0.1,0c0,0,0.1-0.1,0.1-0.1
				c0-0.2,0.1-0.4,0.2-0.7c0.1-0.3,0.3-0.6,0.3-1c0-1.8,0.2-4.1,1.9-6.9c0.2-0.4,0.4-0.8,0.7-1.2c0.7-1.3,1.4-2.8,2.7-4.1
				c0,0,0-0.1,0-0.1s-0.1-0.1-0.1-0.1C257.4,90.2,256.6,90,255.8,89.6C255.8,89.6,255.8,89.6,255.8,89.6z M269.1,87.2
				c0.2,0.1,0.5,0.1,0.7,0.1c0.6,0,1.1,0.1,1.2,0.9c-0.2,0.5-0.6,0.9-1,1c0,0-0.1,0.1-0.1,0.1c-0.1,0.5-0.5,2.5-0.8,4.1
				c0,0.1,0,0.1,0.1,0.1c0,0,0.1,0,0.1,0c0,0,0,0,0.1,0c0.7-0.4,1.4-0.8,2.1-1.2c0.6-0.3,1.3-0.6,2.2-1c0.1,0,0.1-0.1,0.1-0.1
				c-0.1-1.4-0.2-4,0.8-5.4c1.3-1.7,2.7-3.3,4.2-4.8c0.5-0.5,1-1,1.5-1.6c0.1-0.5,1-1.3,1.2-1.4c1-1.1,1.7-2.1,2.3-3
				c1-1.1,1.5-2.5,1.9-3.9c0.6-1.9,1.2-3.6,3-4.7c0.5-0.1,1.5-0.2,1.5-1.2c0.1-0.1,0.2-0.1,0.2-0.1c0.2,0,0.4,0.1,0.6,0.3
				c0.2,0.1,0.5,0.3,0.7,0.3c0.2,0,0.3-0.1,0.4-0.2c0.1-0.6,0.1-1-0.1-1.3c-0.3-0.4-0.7-0.5-1.2-0.6c-0.6-0.1-1.1-0.2-1.4-0.7
				c-0.2-0.3-0.2-0.5-0.3-0.8c0-0.3,0-0.5-0.2-0.8c0,0-0.1-0.1-0.1-0.1c-0.2-0.1-0.4-0.1-0.6-0.1c-1.3,0-1.4,1.3-1.4,2.4
				c0,0.7-0.1,1.5-0.4,1.9c-1.5,3.9-4.7,6.5-9.5,7.8c-0.3,0.1-0.7,0.2-1,0.2c-0.9,0.6-2.1,0.9-3.2,0.9c-1.1,0-2.1-0.3-3-0.7
				c-0.3-0.1-0.6-0.3-0.9-0.5c-3-1.9-5.2-5.6-6-8.3c-0.5-1.6,0.1-2.8,0.6-4c0.2-0.5,0.5-1,0.6-1.6c0,0,0-0.1,0-0.1s-0.1-0.1-0.1-0.1
				c0,0-0.4-0.1-0.4-0.1c0,0-0.1,0-0.1,0.1c-1,1.4-1.7,3-2.1,4.8c-0.4,1.6,0,3.4,1.2,4.6l0,0c0,0,0,0-0.1,0c0,0,0,0,0,0
				c-0.5,0-1-0.3-1.4-0.8c-1.5-2.2-0.9-5-0.4-7c0-0.4,0.2-0.6,0.3-0.8c0.2-0.3,0.5-0.7,0.3-1.3c0,0-0.1-0.1-0.1-0.1
				c-0.2,0-0.3-0.1-0.5-0.1c-0.3,0-0.6,0.1-0.8,0.1l-0.2,0.1c-0.1,0-0.1,0.1-0.1,0.1c-0.1,1.4-0.7,2.4-1.3,3.5
				c-0.2,0.3-0.3,0.6-0.5,0.8c-1.5,2.1-3.6,3.2-5.9,3.2c-0.7,0-1.5-0.1-2.3-0.4c0,0,0,0,0,0c-0.1,0-0.1,0-0.1,0.1
				c-1.7,3.6-2.2,7.9-1.4,12.3c0.7,2.1,2.3,6,5.4,8.1c0.8,0.5,1.6,1,2.5,1.4c0,0,0,0,0.1,0c0,0,0.1,0,0.1,0c0.1-0.1,0.2-0.1,0.3-0.1
				c0,0,0.1,0,0.1,0c0.1,0,0.1,0.2,0.1,0.3c0,0.1,0,0.1,0.1,0.1c1.9,0.8,4,1.1,6.1,1.1c2.2,0,4.4-0.4,6.3-1.2L269.1,87.2z
				 M286.2,79.1c-1.6,0-3.6,0.3-4.5,0.6c-0.6,0.6-1,1.1-1.5,1.6c-1.6,1.7-3.2,3.5-4.6,5.5c-0.5,1-0.7,2.5-0.6,3.9c0,0,0,0.1,0.1,0.1
				c0,0,0,0,0.1,0c0,0,0,0,0.1,0l1.1-0.4c0.7-0.3,1.5-0.6,2.3-0.9c1.4-0.5,3.7-1.7,5.7-3c2.1-1.4,4.3-2.8,4.6-4.5
				c0.1-0.7,0.2-1.9-0.2-2.3C288.2,79.3,287.4,79.1,286.2,79.1z M266.9,59.3c-1.5,0.6-2.1,2.1-2.6,3.6l-0.2,0.6
				c-0.4,1.9,0.6,3.7,1.5,5.2c1.2,1.3,2.6,2.8,4.3,3.7c0.6,0.1,1.2,0.1,1.7,0.1c3.8,0,7.2-1.2,10.3-3.6c1.4-1.7,2.6-3.5,2.7-5.8
				c0-0.1,0-0.1-0.1-0.1c0,0-0.1,0-0.1,0c-0.1,0-0.2-0.1-0.3-0.1c-0.1,0-0.2,0-0.2,0.1c-0.4,0-0.8-0.3-1.1-0.8
				c0.1-0.6,0.6-0.8,1.2-0.9c0.3-0.1,0.6-0.2,0.9-0.4c0,0,0.1-0.1,0.1-0.1l0-0.1c-0.1-1.4-0.2-2.8-0.8-4c-1-2.1-3.2-3.5-5.8-3.7
				c-4.3,0.1-9.3,0.6-13,4c0,0-0.1,0.1,0,0.1l0.1,0.6c0,0,0,0.1,0.1,0.1c0.2,0.1,0.3,0.3,0.5,0.5c0.2,0.3,0.5,0.6,0.9,0.7
				L266.9,59.3z M246.4,60.3c0,0.1-0.1,0.2-0.2,0.3c-0.3,0.9,0.2,1.3,0.7,1.7c0.5,0.4,0.7,0.7,0.6,1.1c0,0,0,0.1,0,0.1
				c0.2,0.4,0.5,0.6,0.8,0.7c0.1,0.1,0.3,0.2,0.4,0.3c0.8,0.3,1.5,0.4,2.2,0.4c1.8,0,3.5-0.8,4.8-2.4c0.7-0.8,1.4-1.9,1.6-3.3
				c0-0.1,0-0.1-0.1-0.2c-0.2-0.1-0.4-0.1-0.6-0.1c-0.3,0-0.6,0.1-0.9,0.2c-0.3,0.1-0.5,0.2-0.8,0.2c-0.2,0-0.3,0-0.5-0.1
				c-0.3-0.2-0.7-0.5-0.9-1c0.6-0.3,1.3-0.5,2-0.7c0.4-0.1,0.7-0.2,1.1-0.3c0.1,0,0.1-0.1,0.1-0.2c-0.3-1.1-1.3-1.4-2.3-1.7
				c-0.2-0.1-0.4-0.1-0.6-0.2c0,0,0,0,0,0c0,0-0.1,0-0.1,0c-0.1,0.1-0.2,0.1-0.4,0.1c-0.3,0-0.6-0.2-0.7-0.4c0,0,0,0-0.1-0.1
				c-0.6-0.1-1.2-0.2-1.8-0.2c-1.5,0-2.9,0.5-3.8,0.8c-0.2,0.1-0.3,0.2-0.5,0.4c-1,0.7-2.2,1.5-1.5,3.1c0.1,0.7,0.5,0.8,1,1
				C246.1,60.1,246.3,60.2,246.4,60.3z M277.3,51.1c1.8,0,3.2,0.4,4.4,1.1c3.1,1,4.5,5.1,5,7.4c0,0.1,0,0.1,0.1,0.1
				c0.3,0.1,0.6,0.1,0.9,0.1c0.8,0,1.6-0.3,2.1-0.9c0,0,0-0.1,0-0.1c-0.1-0.7-0.4-1.4-0.6-2c-0.4-1-0.8-2-0.6-3.1
				c-0.1-0.4-0.2-0.8-0.6-0.9c-0.3-0.2-0.4-0.6-0.5-0.9c0,0-0.1-0.2-0.1-0.2c-0.1,0-0.2-0.1-0.4-0.1c-0.3,0-0.5,0.1-0.7,0.2
				c-0.2,0.1-0.3,0.2-0.5,0.2l-1.2-1.1c-0.1-0.1-0.1-0.3-0.1-0.5c-0.1-0.4-0.1-0.9-0.8-0.9c-0.2-0.1-0.4-0.4-0.4-0.6
				c0,0,0-0.1-0.1-0.1c0,0-0.1,0-0.1,0c0,0,0,0,0,0c0,0-0.1,0-0.1,0c-0.2,0-0.4-0.1-0.6-0.2c-0.3-0.1-0.5-0.2-0.8-0.2
				c-0.3,0-0.5,0.1-0.6,0.3c-0.4-0.2-0.8-0.3-1.2-0.3c-0.7,0-1.2,0.3-1.6,0.9c0,0-0.1,0-0.1,0c-0.3,0-0.4-0.2-0.6-0.5
				c-0.2-0.3-0.5-0.7-1-0.7c0,0-0.1,0-0.1,0c-0.2,0.1-0.2,0.1-0.3,0.1c-0.2,0-0.4-0.2-0.5-0.4c-0.2-0.2-0.4-0.4-0.7-0.5
				c-0.3-0.4-0.2-0.8-0.1-1.2c0.1-0.3,0.1-0.7,0-1.1c0,0,0-0.1-0.1-0.1c-0.1,0-0.2,0-0.2,0c-0.4,0-0.7,0.3-0.9,0.6
				c-0.1,0.1-0.1,0.2-0.2,0.2c-0.1,0-0.2,0.1-0.3,0.2c-0.2,0.1-0.4,0.3-0.6,0.3c0,0-0.2,0-0.3-0.4c-0.4-0.4-0.7-0.6-1-0.6
				c-0.5,0-0.7,0.4-1,0.8c-0.3,0.4-0.5,0.8-0.9,0.8c-0.2-0.2-0.4-0.3-0.7-0.3c-0.3,0-0.5,0.2-0.7,0.4c-0.2,0.2-0.4,0.3-0.6,0.3
				c0,0-0.1,0-0.1,0c-0.8-0.3-1.2-1.2-1-2.6c0-0.1,0-0.1-0.1-0.2c0,0-0.4-0.1-0.4-0.1c0,0-0.1,0-0.1,0.1c-0.4,0.5-1,0.7-1.6,0.8
				c-0.3,0.1-0.7,0.2-1,0.3l-0.1,0c-0.1,0-0.2,0-0.4,0c-0.2,0-0.4,0-0.5-0.4c0-0.1-0.1-0.1-0.1-0.1c-0.6,0-1.1-0.3-1.6-0.5
				c-0.3-0.2-0.7-0.3-1-0.4c0,0,0,0,0,0c0,0-0.1,0-0.1,0.1c-0.3,0.4-0.7,0.8-1.2,1.2c-0.9,0.9-1.8,1.7-1.8,3c0,0.1,0,0.1,0.1,0.1
				c1.3,0.5,2.5,1.3,3.7,2c0.5,0.4,1.1,0.7,1.7,1c0.2,0.3,0.6,0.6,0.9,0.9c0.8,0.7,1.6,1.4,1.5,2.4c0,0.1,0,0.1,0.1,0.2
				c0,0,0.3,0.1,0.3,0.1c0,0,0.1,0,0.1,0c3.1-2.6,6.7-3.5,9.8-4l0.8-0.1C275.6,51.2,276.4,51.1,277.3,51.1z M259,56.9
				c0.4,0,0.9,0.1,1.4,0.2c0.5,0.1,1,0.2,1.4,0.2c1.1,0,1.6-0.5,1.8-1.6c0,0,0-0.1,0-0.1c0,0-0.1,0-0.1,0c0,0,0,0,0,0
				c-1.1,0-1.7-0.8-2.3-1.6c-0.3-0.4-0.6-0.7-0.9-1.1l-3-1.9l-0.1-0.1c-0.5-0.2-1.1-0.6-1.7-0.6c-0.4,0-0.9,0.2-0.9,1l-0.1,0.2
				c-0.2,0.7-0.5,1.6-0.2,2.4c0,0,0,0.1,0.1,0.1c1.8,0.5,3.2,1.5,4.1,2.9c0,0,0.1,0.1,0.1,0.1c0,0,0,0,0,0
				C258.7,56.9,258.8,56.9,259,56.9z M266.6,84.9c-2.8,0-5.1-1.7-5.7-4.2c0-0.3-0.1-0.6-0.2-0.8c-0.2-0.9-0.5-1.7-0.7-2.6
				c-0.2-0.5-0.3-1-0.4-1.5c-0.2-0.3-0.3-0.6-0.5-1c-0.5-1-1-2.2-2.1-2.2c-0.2,0-0.4,0-0.5,0.1c-0.7,0-1.5-0.4-2.3-1.1
				c-0.8-0.7-0.6-1.8-0.5-2.5c0.5-1.3,1.8-1.8,3.1-2.2c0.5-0.2,0.9-0.3,1.3-0.5c0,0,0,0,0.1,0c0.2,0,0.4,0.2,0.6,0.4
				c0.2,0.2,0.3,0.4,0.5,0.4c0.2,0.3,0.1,0.6-0.1,0.9c-0.3,0.1-0.8,0.2-1.3,0.3c-1.3,0.2-2.9,0.5-2.6,2.5c0.5,0.5,0.9,0.6,1.3,0.6
				c0.6,0,1.2-0.4,1.7-0.7c0.4-0.3,0.8-0.6,1.2-0.6c0.3,0,0.8,0.2,1.4,1.5c0.2,2.1,0.3,4.4,1.2,6.5c0,0.2,0,0.4,0.1,0.6
				c0.3,1.1,1,1.7,2.1,1.7c0.9,0,2-0.4,3-0.8c0.9-0.4,1.8-0.7,2.6-0.8c0.3-0.1,0.5-0.2,0.7-0.3l0.2-0.1c0.2-0.1,0.5-0.3,0.7-0.4
				c1.4-0.9,2.9-1.8,4.5-1.8c0.3,0,0.6,0,0.9,0.1c0.3,0,0.5,0.1,0.6,0.2c0.1,0.1,0.1,0.2,0.1,0.4c0,0.2,0,0.4-0.1,0.6
				c-1.1,2-3,3.8-5.8,5.5c-0.2,0.2-0.5,0.3-0.7,0.4C269.4,84.5,268,84.9,266.6,84.9L266.6,84.9z M274.6,78.2c-0.3,0-0.5,0.1-0.8,0.2
				c-1.1,0.6-1.9,1.1-2.8,1.5c-0.2,0.1-0.4,0.2-0.6,0.3c-1.4,1.3-3.3,1.3-5.3,1.3c-0.1,0-0.1,0-0.1,0.1c0,0.1,0,0.1,0,0.2
				c1.1,1.1,2,1.6,2.9,1.6c0.8,0,1.7-0.4,2.9-1.3c0,0,0.7-0.3,0.9-0.4c1.5-0.6,2.9-1.6,3.1-3.4c0,0,0-0.1,0-0.1
				C274.7,78.2,274.7,78.2,274.6,78.2C274.6,78.2,274.6,78.2,274.6,78.2z M277.5,67.8c-0.3,0-0.7-0.4-0.9-0.7
				c-0.3-0.4-0.4-1-0.2-1.3c0.7-0.6,1.3-1.1,2.1-1.2c0.1,0.1,0.3,0.2,0.4,0.2c0.3,0.1,0.4,0.2,0.5,0.5c-0.1,0.1-0.1,0.3-0.2,0.5
				c-0.3,0.8-0.6,1.7-1.5,1.9C277.6,67.8,277.6,67.8,277.5,67.8z M253.7,61.7c-0.3,0-0.7-0.3-0.7-0.6c-0.1-0.7,0.6-1,0.8-1.1l0.1,0
				c0.1,0,0.3,0.3,0.3,0.6c0,0.1,0,0.2,0.1,0.2C254.3,61.2,254.1,61.6,253.7,61.7L253.7,61.7z"/>
		</g>
	</g>
	
		<use xlink:href="#Logo-main"  width="161.3" height="68" y="-68" transform="matrix(1 0 0 -1 42.0508 39.8428)" overflow="visible"/>
</g>
</svg>
