<?xml version="1.0" encoding="utf-8"?>
<!-- Generator: Adobe Illustrator 16.0.4, SVG Export Plug-In . SVG Version: 6.00 Build 0)  -->
<!DOCTYPE svg PUBLIC "-//W3C//DTD SVG 1.1//EN" "http://www.w3.org/Graphics/SVG/1.1/DTD/svg11.dtd">
<svg version="1.1" id="logo" xmlns="http://www.w3.org/2000/svg" xmlns:xlink="http://www.w3.org/1999/xlink" x="0px" y="0px"
	 width="500px" height="500px" viewBox="0 0 500 500" enable-background="new 0 0 500 500" xml:space="preserve">
<g id="main_logo_2_">
	<g>
		<circle fill="#295FE4" cx="250" cy="250" r="232.287"/>
		<path fill="#FFFFFF" d="M426.777,73.223C379.558,26.004,316.777,0,250,0S120.442,26.004,73.223,73.223
			C26.004,120.442,0,183.223,0,250s26.004,129.558,73.223,176.777C120.442,473.996,183.223,500,250,500
			s129.558-26.004,176.777-73.223C473.996,379.558,500,316.777,500,250S473.996,120.442,426.777,73.223z M405.655,102.46
			l-30.701,51.295H131.078L98.983,97.721C137.786,59.237,191.162,35.426,250,35.426C311.218,35.426,366.525,61.199,405.655,102.46z
			 M353.751,189.181L250.336,361.97l-98.967-172.789H353.751z M250,464.574c-118.316,0-214.574-96.257-214.574-214.574
			c0-45.946,14.522-88.562,39.209-123.51l175.029,305.585l179.531-299.963c22.347,33.854,35.379,74.375,35.379,117.888
			C464.574,368.316,368.316,464.574,250,464.574z"/>
	</g>
</g>
<g id="black_logo_2_">
</g>
<g id="white_logo_5_">
</g>
<g id="main_name_1_">
</g>
<g id="main_logo_1_">
</g>
<g id="main_name">
</g>
<g id="main_logo">
</g>
<g id="white_name_3_">
</g>
<g id="white_logo_4_">
</g>
<g id="black_name_1_">
</g>
<g id="black_logo_1_">
</g>
<g id="white_name_2_">
</g>
<g id="white_logo_3_">
</g>
<g id="black_name">
</g>
<g id="black_logo">
</g>
<g id="white_logo_2_">
</g>
<g id="white_name_1_">
</g>
<g id="white_logo_1_">
</g>
<g id="white_name">
</g>
<g id="white_logo">
</g>
</svg>
